<?xml version="1.0" encoding="UTF-8"?>
<svg id="Layer_1" xmlns="http://www.w3.org/2000/svg" version="1.1" viewBox="0 0 50 50">
  <!-- Generator: Adobe Illustrator 29.8.3, SVG Export Plug-In . SVG Version: 2.1.1 Build 3)  -->
  <defs>
    <style>
      .st0 {
        fill: none;
        stroke: #ffffff;
        stroke-linejoin: round;
        stroke-width: 1.5px;
      }
      .st0:hover {
        stroke: #1d1d1b;
      }
    </style>
  </defs>
  <path class="st0" d="M27.07,13.55v-6.39c0-.44-.35-.79-.79-.79h-2.94c-.44,0-.79.35-.79.79v6.39c0,.44-.35.79-.79.79h0c-.66,0-1.03.77-.61,1.29l3.06,3.73c.32.38.9.38,1.22,0l3.05-3.73c.42-.51.05-1.29-.61-1.29h0c-.44,0-.79-.35-.79-.79Z"/>
  <path class="st0" d="M13.52,22.58h-6.4c-.44,0-.79.35-.79.79v2.93c0,.44.35.79.79.79h6.4c.44,0,.79.35.79.79h0c0,.67.77,1.04,1.29.61l3.72-3.05c.38-.32.38-.9,0-1.22l-3.72-3.05c-.51-.42-1.29-.06-1.29.61h0c0,.44-.35.8-.79.8Z"/>
  <path class="st0" d="M22.55,36.13v6.39c0,.44.35.79.79.79h2.94c.44,0,.79-.35.79-.79v-6.39c0-.44.35-.79.79-.79h0c.66,0,1.03-.77.61-1.29l-3.05-3.73c-.32-.39-.9-.39-1.22,0l-3.06,3.73c-.42.51-.06,1.29.61,1.29h0c.44,0,.79.35.79.79Z"/>
  <path class="st0" d="M36.1,27.09h6.39c.44,0,.79-.35.79-.79v-2.93c0-.44-.35-.79-.79-.79h-6.39c-.44,0-.79-.35-.79-.79h0c0-.67-.77-1.04-1.29-.62l-3.72,3.05c-.38.32-.38.9,0,1.22l3.72,3.05c.51.42,1.29.06,1.29-.61h0c0-.44.35-.79.79-.79Z"/>
  <circle class="st0" cx="24.81" cy="24.83" r="2.43"/>
</svg>