<?xml version="1.0" encoding="UTF-8"?>
<svg id="Layer_1" xmlns="http://www.w3.org/2000/svg" version="1.1" viewBox="0 0 50 50">
  <!-- Generator: Adobe Illustrator 29.8.3, SVG Export Plug-In . SVG Version: 2.1.1 Build 3)  -->
  <defs>
    <style>
      .st0 {
        fill: none;
        stroke: #0038e3;
        stroke-linejoin: round;
        stroke-width: 1.5px;
      }
    </style>
  </defs>
  <path class="st0" d="M28.79,19.89c0,3.09-2.83,5.6-2.83,5.6,0,0-2.83-2.51-2.83-5.6s2.83-5.6,2.83-5.6c0,0,2.83,2.51,2.83,5.6Z"/>
  <path class="st0" d="M21.52,21.07c2.94.95,4.45,4.42,4.45,4.42,0,0-3.26,1.91-6.2.96s-4.45-4.42-4.45-4.42c0,0,3.26-1.91,6.2-.96Z"/>
  <path class="st0" d="M20.39,28.35c1.82-2.5,5.58-2.87,5.58-2.87,0,0,.81,3.69-1,6.19s-5.58,2.87-5.58,2.87c0,0-.81-3.69,1-6.19Z"/>
  <path class="st0" d="M26.96,31.67c-1.82-2.5-1-6.19-1-6.19,0,0,3.76.37,5.58,2.87s1,6.19,1,6.19c0,0-3.76-.37-5.58-2.87Z"/>
  <path class="st0" d="M32.16,26.45c-2.94.95-6.2-.96-6.2-.96,0,0,1.51-3.46,4.45-4.42,2.94-.95,6.2.96,6.2.96,0,0-1.51,3.46-4.45,4.42Z"/>
</svg>