<svg xmlns="http://www.w3.org/2000/svg" viewBox="0 0 336.33 154.59"><defs><style>.cls-1{fill:#ed7039;}.cls-2{fill:#727171;}.cls-3{fill:#54a3da;}</style></defs><g id="Layer_2" data-name="Layer 2"><g id="레이어_1" data-name="레이어 1"><path class="cls-1" d="M122.14,31.44c0,.86-.59,2.3-1.78,4.3A120.28,120.28,0,0,1,112.28,47Q107.44,53,101.54,59T89,70.68A120.7,120.7,0,0,1,75.6,80.55,82.38,82.38,0,0,1,62.12,87.4,35,35,0,0,1,49.44,90h-.57c-9.25,0-16.2-2.65-20.8-8s-6.9-12.7-6.9-22.17a84.33,84.33,0,0,1,.9-12A68.06,68.06,0,0,1,25.2,35a70.31,70.31,0,0,1,6.08-13.08A66.56,66.56,0,0,1,41.07,9.26,34.44,34.44,0,0,1,50.5,2.4,21.46,21.46,0,0,1,59.83,0a6.35,6.35,0,0,1,1.72.32,16.79,16.79,0,0,1,2.15.85,14.63,14.63,0,0,1,2.11,1.3,11.18,11.18,0,0,1,1.75,1.67,23.51,23.51,0,0,1,3.32,5.6A16.93,16.93,0,0,1,71.94,16a26.91,26.91,0,0,1-1.29,8.57,32.56,32.56,0,0,1-3.74,7.52,52.3,52.3,0,0,1-6,7.35c-2.36,2.47-5.1,5.13-8.19,8-1,1-2.25,2.06-3.66,3.25s-2.92,2.44-4.54,3.74-3.31,2.65-5.05,4.06-3.44,2.78-5.1,4.13Q35,77.19,50.5,77.17q8.59,0,18.35-4.55a57.9,57.9,0,0,0,8.94-5.24c2.76-2,5.48-4,8.12-6q2-1.55,4.3-3.66c1.59-1.4,3.19-2.89,4.83-4.47s3.31-3.14,5-4.7,3.21-3.06,4.66-4.47c.92-.92,1.92-1.9,3-2.93S109.81,39,111,37.77l4.38-4.38q4-3.5,5.77-3.5C121.81,29.89,122.14,30.41,122.14,31.44ZM59.59,19.25A7.08,7.08,0,0,0,58.28,15a3.79,3.79,0,0,0-3.15-1.83,8.09,8.09,0,0,0-3.54,1.13A16.34,16.34,0,0,0,47,18.36a56.27,56.27,0,0,0-8.43,14.5,74.67,74.67,0,0,0-4.89,18.89c3.42-2.77,6.3-5.23,8.67-7.4s4.48-4.19,6.37-6.09q1.95-1.95,3.86-4.14a41.28,41.28,0,0,0,3.48-4.64,25,25,0,0,0,2.56-5A14.86,14.86,0,0,0,59.59,19.25Z"/><path class="cls-2" d="M249.5,34.61a9.88,9.88,0,0,1-.53,3.12,26.37,26.37,0,0,1-1.29,3.17A28.64,28.64,0,0,1,245.94,44c-.67,1-1.27,2-1.88,2.88a70,70,0,0,1-5.52,7.43c-2.11,2.52-4.38,5-6.78,7.36s-4.89,4.62-7.44,6.74a87.47,87.47,0,0,1-7.47,5.6c-1.94,1.3-3.8,2.52-5.56,3.66A42.35,42.35,0,0,1,206,80.58a32.06,32.06,0,0,1-5.61,2,26.27,26.27,0,0,1-6.42.73q-6.72,0-11-3.41a15.54,15.54,0,0,1-3.69-4.43,34.74,34.74,0,0,1-2.76-6,62.48,62.48,0,0,1-2-7.07c-.57-2.48-1-4.95-1.43-7.38-.49-3-.93-5.77-1.37-8.17a44.24,44.24,0,0,0-1.5-6.1,10.62,10.62,0,0,0-2.08-3.81,4.11,4.11,0,0,0-3.17-1.34,13,13,0,0,0-2.91.32,9.43,9.43,0,0,0-2.9,1.3,22,22,0,0,0-3.28,2.76c-1.2,1.19-2.58,2.77-4.19,4.72s-3.42,4.33-5.48,7.15-4.46,6.17-7.24,10.06c-1.35,1.9-2.95,4-4.79,6.26s-3.72,4.44-5.63,6.5A70.85,70.85,0,0,1,122.86,80,14.71,14.71,0,0,1,118,83q-7.12-1.55-7.14-17.79a125,125,0,0,1,1-13.08c.31-2.65.7-5.43,1.13-8.33s1-5.79,1.63-8.68,1.39-5.73,2.23-8.45a51.28,51.28,0,0,1,3-7.61,10.35,10.35,0,0,1,1.7-2.55,6.4,6.4,0,0,1,1.82-1.38,5.87,5.87,0,0,1,2-.56,15.55,15.55,0,0,1,2.07-.13c.86,0,1.63.59,2.31,1.79a9.9,9.9,0,0,1,1,4.95,20.16,20.16,0,0,1-.33,3.66,33.66,33.66,0,0,1-.88,3.49c-.4,1.19-.81,2.47-1.24,3.86s-.86,3-1.29,4.75c-.33,1.46-.68,3.09-1.09,4.88s-.79,3.6-1.14,5.44-.66,3.64-.9,5.4a37.35,37.35,0,0,0-.37,4.75,10.34,10.34,0,0,0,.49,3c1.53-.15,4-2.43,7.47-6.81,1.8-2.23,3.76-4.66,5.89-7.32s4.46-5.58,6.95-8.78Q147,34,149.72,30.87a42.59,42.59,0,0,1,5.64-5.41,26.06,26.06,0,0,1,6.22-3.65,19,19,0,0,1,7.26-1.34,12.75,12.75,0,0,1,7,1.82,13.51,13.51,0,0,1,4.5,5A28.92,28.92,0,0,1,183,35c.63,3,1.12,6.25,1.51,9.83q.47,4.54.92,9a32.59,32.59,0,0,0,1.76,8A13.89,13.89,0,0,0,191,67.58c1.62,1.46,4,2.2,7,2.2a18.51,18.51,0,0,0,7.3-1.63,46.24,46.24,0,0,0,8.06-4.51A99.62,99.62,0,0,0,222,56.86c3-2.6,6.11-5.45,9.3-8.53a48.59,48.59,0,0,0,4.1-4.51c1.49-1.81,3-3.56,4.39-5.24s2.78-3.11,4-4.3,2.25-1.78,3-1.78a4.42,4.42,0,0,1,1.59.48A1.66,1.66,0,0,1,249.5,34.61Z"/><path class="cls-3" d="M315.16,59.05A7.75,7.75,0,0,1,313,64.34c-1.46,1.62-2.73,3-3.83,4.1s-2.09,2.13-3.07,3-2,1.8-3.09,2.64-2.35,1.8-3.82,2.87a109.43,109.43,0,0,1-11.77,7.52,80.84,80.84,0,0,1-10.9,5,56.55,56.55,0,0,1-10.43,2.72,68,68,0,0,1-10.37.81A22.07,22.07,0,0,1,246,90.93a21.12,21.12,0,0,1-7.26-5.64A24.75,24.75,0,0,1,234.24,77a31.84,31.84,0,0,1-1.54-10v-.41a51.56,51.56,0,0,1,1.38-11.42A80,80,0,0,1,237.94,43a90,90,0,0,1,13.69-23c1.14-1.36,2.51-2.8,4.09-4.34a45.46,45.46,0,0,1,5.13-4.26,29,29,0,0,1,5.69-3.21,14.77,14.77,0,0,1,5.79-1.26,6.68,6.68,0,0,1,3.74,1.17,15.3,15.3,0,0,1,3.34,3.05,28.33,28.33,0,0,1,2.84,4.18A32.75,32.75,0,0,1,284.44,20a33.72,33.72,0,0,1,1.39,4.59,18.83,18.83,0,0,1,.49,3.74,17.58,17.58,0,0,1-1.47,6.09c-1,2.5-2.15,3.74-3.5,3.74q-2.91,0-4.87-4a20,20,0,0,1-1.25-3.57c-.35-1.36-.77-2.68-1.22-4A15.58,15.58,0,0,0,272.18,23,6.85,6.85,0,0,0,269,20.55a10.68,10.68,0,0,0-4.09,2.11,27.66,27.66,0,0,0-4.07,4A50.24,50.24,0,0,0,257,32c-1.27,2-2.48,4-3.61,6.13a56.25,56.25,0,0,0-3.17,6.7,81.66,81.66,0,0,0-2.76,7.8,72.21,72.21,0,0,0-2,8,40.36,40.36,0,0,0-.72,7.31,10.94,10.94,0,0,0,1.13,4.75,16.86,16.86,0,0,0,3,4.34A15.59,15.59,0,0,0,253,80.17a10,10,0,0,0,4.76,1.23,61.59,61.59,0,0,0,23.89-5,82,82,0,0,0,22.57-14.38c3.95-3.47,7.24-5.2,9.82-5.2C314.77,56.86,315.16,57.6,315.16,59.05Z"/><path class="cls-2" d="M16.24,152.7a.79.79,0,0,1,.59.25.85.85,0,0,1,.26.62.76.76,0,0,1-.26.6.85.85,0,0,1-.59.22L1,154.34a.85.85,0,0,1-.51-.17.77.77,0,0,1-.45-.74l.06-12.67a.49.49,0,0,1-.06-.23.46.46,0,0,1,.06-.22V128.08A.83.83,0,0,1,0,127.8a.79.79,0,0,1,.25-.62.88.88,0,0,1,.6-.23H.91l15.22.06a.84.84,0,0,1,.59,1.44.82.82,0,0,1-.59.26l-14.38-.06v11l10.3.06a.77.77,0,0,1,.62.25.88.88,0,0,1,.23.6.79.79,0,0,1-.25.59.83.83,0,0,1-.6.26l-10.3-.06L1.7,152.64Z"/><path class="cls-2" d="M28,135.1a.79.79,0,0,1,.62.26.9.9,0,0,1,.23.62.81.81,0,0,1-.23.59.77.77,0,0,1-.56.23l-2.66,0-.06,16.7a.84.84,0,0,1-1.44.59.82.82,0,0,1-.26-.59l.06-16.7H21a.81.81,0,0,1-.59-.25.81.81,0,0,1,0-1.19.81.81,0,0,1,.59-.25h2.66v-7.41a.83.83,0,0,1,.26-.6.82.82,0,0,1,1.18,0,.83.83,0,0,1,.26.6v7.41Z"/><path class="cls-2" d="M33.61,145.91A8.18,8.18,0,0,0,35.14,151q1.41,1.69,5,1.7a17.18,17.18,0,0,0,3.2-.37,8.31,8.31,0,0,0,2.06-.68,3.93,3.93,0,0,0,1.11-.85,2.93,2.93,0,0,0,.48-.65,1.26,1.26,0,0,1,.11-.28.79.79,0,0,1,.34-.54.81.81,0,0,1,.62-.14.79.79,0,0,1,.54.34.8.8,0,0,1,.14.62v.06a3.86,3.86,0,0,1-.2.65,4.19,4.19,0,0,1-.7,1A5.93,5.93,0,0,1,46.45,153a8.92,8.92,0,0,1-2.52.9,17.53,17.53,0,0,1-3.76.45q-4.64,0-6.45-2.4a10.7,10.7,0,0,1-1.81-6.59,16.25,16.25,0,0,1,.54-4.44,9.17,9.17,0,0,1,1.33-3,6.34,6.34,0,0,1,1.89-1.73,7.72,7.72,0,0,1,2.07-.88,9.18,9.18,0,0,1,2.09-.22,10.22,10.22,0,0,1,3.31.51,8.27,8.27,0,0,1,2.8,1.64,7.39,7.39,0,0,1,2,3.17,14.14,14.14,0,0,1,.74,4.81.82.82,0,0,1-.26.59.81.81,0,0,1-.59.25ZM47,144.44q-.41-7.59-7.19-7.59-5.78,0-6.17,7.36Z"/><path class="cls-2" d="M55.11,153.55a.87.87,0,0,1-.88.84.75.75,0,0,1-.59-.25.88.88,0,0,1-.23-.59l-.06-12.68a.64.64,0,0,1,0-.51l-.05-4.47a.81.81,0,0,1,.25-.59.86.86,0,0,1,.63-.26.76.76,0,0,1,.59.26.88.88,0,0,1,.23.59l0,1.3a5.27,5.27,0,0,1,4.19-2c2.64.07,4.39.83,5.26,2.26v.06a.78.78,0,0,1-.31,1.16.76.76,0,0,1-1.16-.31c-.53-.91-1.79-1.4-3.79-1.48a3.55,3.55,0,0,0-1.73.43,3.83,3.83,0,0,0-1.27,1.13,9,9,0,0,0-.76,1.22c-.17.34-.31.66-.43,1Z"/><path class="cls-2" d="M76.5,135.16a14.57,14.57,0,0,1,4.1.51,5.81,5.81,0,0,1,2.57,1.38,6,6,0,0,1,1.22,1.73,4.58,4.58,0,0,1,.37,1.81l-.06,13a.84.84,0,0,1-1.44.59.82.82,0,0,1-.26-.59l.06-13A3.21,3.21,0,0,0,81.59,138q-1.47-1.11-5.09-1.11A7.58,7.58,0,0,0,73,138a25.6,25.6,0,0,0-3.48,2.3l.06,13.24a.82.82,0,0,1-.26.59.85.85,0,0,1-1.44-.59l-.06-13.3a.8.8,0,0,1,0-.57l0-3.79a.81.81,0,0,1,.25-.59.85.85,0,0,1,.62-.26.76.76,0,0,1,.6.26.87.87,0,0,1,.22.59l.06,2.32Q73.66,135.17,76.5,135.16Z"/><path class="cls-2" d="M103,136a.8.8,0,0,1,.26-.59.84.84,0,0,1,.62-.26.76.76,0,0,1,.59.26.86.86,0,0,1,.23.59V153.6a.83.83,0,0,1-.26.6.81.81,0,0,1-.62.25.75.75,0,0,1-.59-.25.88.88,0,0,1-.23-.6v-2.43a8.69,8.69,0,0,1-7,3.22q-4.63,0-6.45-2.4a10.7,10.7,0,0,1-1.81-6.59,16.25,16.25,0,0,1,.54-4.44,9.17,9.17,0,0,1,1.33-3,6.34,6.34,0,0,1,1.89-1.73,7.72,7.72,0,0,1,2.07-.88,9.18,9.18,0,0,1,2.09-.22,8.24,8.24,0,0,1,7.3,3.68Zm-7.3.9q-6.23,0-6.22,8.55a8.88,8.88,0,0,0,1.41,5.49c1,1.2,2.66,1.81,5.15,1.81a8.18,8.18,0,0,0,3-.63,6.56,6.56,0,0,0,2-1.21,6,6,0,0,0,1.16-1.56,5.76,5.76,0,0,0,.57-1.33l.14-.76a2.74,2.74,0,0,0,.11-.28v-3.8c0-.22-.09-.49-.17-.82a7.45,7.45,0,0,0-.65-1.52A8.84,8.84,0,0,0,101,139a6.42,6.42,0,0,0-2.1-1.44A7.2,7.2,0,0,0,95.73,136.85Z"/><path class="cls-2" d="M111,153.55a.82.82,0,0,1-.26.59.82.82,0,0,1-1.18,0,.82.82,0,0,1-.26-.59l0-25.8a.85.85,0,0,1,1.69,0Z"/><path class="cls-2" d="M132.57,135.16a2.4,2.4,0,0,1-.06-.48v-.43a10.62,10.62,0,0,1,.28-2.49,8.39,8.39,0,0,1,1-2.32,4.93,4.93,0,0,1,2-1.81,6.89,6.89,0,0,1,3.14-.68,5.89,5.89,0,0,1,2.41.46,5.05,5.05,0,0,1,1.7,1.13,6.11,6.11,0,0,1,1.1,1.64,10.44,10.44,0,0,1,.65,1.7,13,13,0,0,1,.31,1.64c.08.6.12,1,.14,1.13a3.89,3.89,0,0,1,0,.51,4.51,4.51,0,0,1-.37,1.86,4.76,4.76,0,0,1-1.19,1.62,12.19,12.19,0,0,1-1.47,1.21c-.43.31-1.07.72-1.92,1.25s-1.46.92-1.84,1.19a96.65,96.65,0,0,0,7.41,7.63,8.67,8.67,0,0,0,2.1-3.16.76.76,0,0,1,.42-.49.86.86,0,0,1,.65,0,.72.72,0,0,1,.48.42.82.82,0,0,1,0,.65,10.82,10.82,0,0,1-2.43,3.74c.86.79,1.62,1.45,2.26,2a.75.75,0,0,1,.09,1.18.76.76,0,0,1-1.22.12l-2.38-2.15a10.82,10.82,0,0,1-6.9,2.26,6.17,6.17,0,0,1-4.53-1.89,7.66,7.66,0,0,1-1.1-1.73,8.54,8.54,0,0,1-.54-1.3c0-.19-.07-.4-.11-.62v-.17A8.46,8.46,0,0,1,136,142Q132.57,137.65,132.57,135.16Zm4.81,5.77c.41-.27,1-.62,1.72-1.08s1.31-.82,1.73-1.1.85-.62,1.33-1a4.11,4.11,0,0,0,1-1.22,2.71,2.71,0,0,0,.34-1.35,8.35,8.35,0,0,0-.14-1.36,19.68,19.68,0,0,0-.51-2.09,4.3,4.3,0,0,0-1.41-2.18,3.86,3.86,0,0,0-2.58-.88,5,5,0,0,0-2.4.54,3.33,3.33,0,0,0-1.44,1.44,7.9,7.9,0,0,0-.66,1.78,8.51,8.51,0,0,0-.19,1.84,5.11,5.11,0,0,0,0,.79v.12C134.26,136.4,135.3,138.33,137.38,140.93ZM144.62,151a92.1,92.1,0,0,1-7.53-7.7,6.82,6.82,0,0,0-2.71,5.38,3.93,3.93,0,0,0,.25.91,9.93,9.93,0,0,0,.68,1.32,3.45,3.45,0,0,0,1.44,1.33,4.65,4.65,0,0,0,2.21.51A9.42,9.42,0,0,0,144.62,151Z"/><path class="cls-2" d="M184.39,128.59a14.16,14.16,0,0,0-5.09,1.08,8.14,8.14,0,0,0-3.68,2.8,12.54,12.54,0,0,0-2.12,4.07,14.67,14.67,0,0,0-.59,4,12.13,12.13,0,0,0,.34,2.69,19.87,19.87,0,0,0,1,3.17,11,11,0,0,0,1.93,3.08,7.29,7.29,0,0,0,2.83,2,14.75,14.75,0,0,0,5.32,1.19q3.78,0,8-3.11a.72.72,0,0,1,1.16.16.76.76,0,0,1-.2,1.19q-4.64,3.45-9,3.45a16.19,16.19,0,0,1-5.94-1.3,9,9,0,0,1-3.37-2.37,12,12,0,0,1-2.26-3.51,22.92,22.92,0,0,1-1.16-3.59,13.64,13.64,0,0,1-.4-3.09,13.83,13.83,0,0,1,.4-3.22,19.29,19.29,0,0,1,1.21-3.54,11.56,11.56,0,0,1,2.35-3.39,9.52,9.52,0,0,1,3.51-2.3,15.85,15.85,0,0,1,5.71-1.18,15.17,15.17,0,0,1,9,3.33.85.85,0,1,1-1,1.36A13.47,13.47,0,0,0,184.39,128.59Z"/><path class="cls-2" d="M214.66,145.4a18,18,0,0,1-.08,1.87,11.19,11.19,0,0,1-.57,2.26,7,7,0,0,1-1.35,2.4,7.31,7.31,0,0,1-2.58,1.73,10.21,10.21,0,0,1-4.07.73q-4.65,0-6.45-2.4a10.7,10.7,0,0,1-1.81-6.59,16.28,16.28,0,0,1,.53-4.44,9.17,9.17,0,0,1,1.33-3,6.25,6.25,0,0,1,1.9-1.73,7.54,7.54,0,0,1,2.06-.88,9.21,9.21,0,0,1,2.1-.22,9.53,9.53,0,0,1,4.41,1,6.92,6.92,0,0,1,2.83,2.52,11.78,11.78,0,0,1,1.39,3.17,13.22,13.22,0,0,1,.42,3.36A.49.49,0,0,1,214.66,145.4Zm-9-8.55q-6.22,0-6.23,8.55a8.81,8.81,0,0,0,1.42,5.49c.94,1.2,2.66,1.81,5.15,1.81a9.14,9.14,0,0,0,3.67-.65,4.43,4.43,0,0,0,2.15-1.84,7.55,7.55,0,0,0,.91-2.35,13.84,13.84,0,0,0,.23-2.63V145a.44.44,0,0,1,.05-.22c0-.68-.1-1.32-.19-1.93a8.34,8.34,0,0,0-.66-2,7.84,7.84,0,0,0-1.24-2,5.51,5.51,0,0,0-2.12-1.42A8.21,8.21,0,0,0,205.67,136.85Z"/><path class="cls-2" d="M224.68,152.75a8.56,8.56,0,0,0,2.77-.39,3.25,3.25,0,0,0,1.61-1.05,4.8,4.8,0,0,0,.68-1.19,3,3,0,0,0,.2-1,2.84,2.84,0,0,0-.65-1.9,3.29,3.29,0,0,0-1.64-1.05,12,12,0,0,0-1.64-.36,9,9,0,0,0-1.22-.09h-.17c-.26,0-.56-.06-.9-.08a11.53,11.53,0,0,1-1.73-.34,9.19,9.19,0,0,1-2.12-.8,4.8,4.8,0,0,1-1.64-1.5,3.93,3.93,0,0,1-.74-2.37,5.05,5.05,0,0,1,1.76-3.79c1.16-1.1,3-1.64,5.43-1.64q5,.1,6.84,3.34a.85.85,0,0,1,.06.79.76.76,0,0,1-1.13.39,1.06,1.06,0,0,1-.4-.34c-.94-1.65-2.73-2.49-5.37-2.49-2,0-3.37.33-4.22,1.11a3.47,3.47,0,0,0-1.27,2.63,2.38,2.38,0,0,0,.57,1.58,3.22,3.22,0,0,0,1.32,1,10.53,10.53,0,0,0,1.59.51,12.56,12.56,0,0,0,1.33.26c.34,0,.55,0,.62,0h.17a10.92,10.92,0,0,1,2.18.23,9.82,9.82,0,0,1,2.21.76,4.4,4.4,0,0,1,1.78,1.59,4.56,4.56,0,0,1,.68,2.52,5.25,5.25,0,0,1-.31,1.75,5.61,5.61,0,0,1-1.05,1.7,5.22,5.22,0,0,1-2.18,1.38,9.74,9.74,0,0,1-3.42.54,12.36,12.36,0,0,1-2.77-.28,9.15,9.15,0,0,1-2-.65,5.89,5.89,0,0,1-1.31-.88,5.08,5.08,0,0,1-.73-.76,2.31,2.31,0,0,1-.28-.54.74.74,0,0,1,0-.68.72.72,0,0,1,.42-.45.76.76,0,0,1,1.13.39l.14.26a3.78,3.78,0,0,0,.51.51,5.47,5.47,0,0,0,1,.65,7.08,7.08,0,0,0,1.59.51A10.82,10.82,0,0,0,224.68,152.75Z"/><path class="cls-2" d="M251.78,135.16a5.73,5.73,0,0,1,4.33,1.67,5.28,5.28,0,0,1,1.61,3.76v13a.84.84,0,0,1-1.44.59.82.82,0,0,1-.26-.59v-13a3.86,3.86,0,0,0-1-2.52,4,4,0,0,0-3.2-1.22,3.76,3.76,0,0,0-2.12.71,6.88,6.88,0,0,0-1.56,1.36,15,15,0,0,0-.9,1.27,1.62,1.62,0,0,1,.05.4v13a.85.85,0,0,1-1.69,0v-13a3.77,3.77,0,0,0-1.08-2.52,4.08,4.08,0,0,0-3.22-1.22,3.68,3.68,0,0,0-2,.68,7.55,7.55,0,0,0-1.56,1.33,7.64,7.64,0,0,0-.87,1.28l.05,13.41a.84.84,0,0,1-1.44.59.82.82,0,0,1-.26-.59l0-13.3a.71.71,0,0,1,0-.57v-3.79a.87.87,0,0,1,.22-.59.78.78,0,0,1,.6-.26.85.85,0,0,1,.62.26.82.82,0,0,1,.26.59v1.47a6.12,6.12,0,0,1,4.47-2.2,5.54,5.54,0,0,1,5.31,2.94Q248.9,135.16,251.78,135.16Z"/><path class="cls-2" d="M262.53,145.91a8.24,8.24,0,0,0,1.53,5.09q1.41,1.69,5,1.7a17.08,17.08,0,0,0,3.2-.37,8.56,8.56,0,0,0,2.07-.68,3.87,3.87,0,0,0,1.1-.85,2.93,2.93,0,0,0,.48-.65,2,2,0,0,1,.11-.28.79.79,0,0,1,.34-.54.81.81,0,0,1,.62-.14.79.79,0,0,1,.54.34.8.8,0,0,1,.14.62v.06a3.73,3.73,0,0,1-.19.65,4.64,4.64,0,0,1-.71,1,5.93,5.93,0,0,1-1.42,1.16,9,9,0,0,1-2.51.9,17.71,17.71,0,0,1-3.77.45q-4.63,0-6.45-2.4a10.77,10.77,0,0,1-1.81-6.59,16.25,16.25,0,0,1,.54-4.44,9.17,9.17,0,0,1,1.33-3,6.25,6.25,0,0,1,1.9-1.73,7.54,7.54,0,0,1,2.06-.88,9.18,9.18,0,0,1,2.09-.22,10.22,10.22,0,0,1,3.31.51,8.18,8.18,0,0,1,2.8,1.64,7.39,7.39,0,0,1,2,3.17,14.14,14.14,0,0,1,.74,4.81.82.82,0,0,1-.26.59.81.81,0,0,1-.59.25Zm13.41-1.47q-.39-7.59-7.19-7.59-5.76,0-6.16,7.36Z"/><path class="cls-2" d="M290,135.1a.79.79,0,0,1,.62.26.9.9,0,0,1,.23.62.81.81,0,0,1-.23.59.77.77,0,0,1-.56.23l-2.66,0-.06,16.7a.85.85,0,0,1-.85.84.79.79,0,0,1-.59-.25.82.82,0,0,1-.26-.59l.06-16.7h-2.66a.79.79,0,0,1-.59-.25.81.81,0,0,1,0-1.19.79.79,0,0,1,.59-.25h2.66v-7.41a.84.84,0,0,1,1.44-.6.83.83,0,0,1,.26.6v7.41Z"/><path class="cls-2" d="M298.26,132.24a1.72,1.72,0,0,1-2.38,0,1.7,1.7,0,0,1,0-2.37,1.67,1.67,0,0,1,2.86,1.19A1.6,1.6,0,0,1,298.26,132.24ZM298,153.6a.85.85,0,0,1-.88.85.75.75,0,0,1-.59-.25.88.88,0,0,1-.23-.6V135.89a.82.82,0,0,1,.26-.59.8.8,0,0,1,.59-.26.83.83,0,0,1,.6.26.85.85,0,0,1,.25.59Z"/><path class="cls-2" d="M309.77,136.85q-6.22,0-6.22,8.55a8.81,8.81,0,0,0,1.42,5.49c.94,1.2,2.65,1.81,5.14,1.81a17.08,17.08,0,0,0,3.2-.37,8.56,8.56,0,0,0,2.07-.68,3.87,3.87,0,0,0,1.1-.85,2.93,2.93,0,0,0,.48-.65l.11-.28a.79.79,0,0,1,.34-.54.83.83,0,0,1,.63-.14.79.79,0,0,1,.53.34.8.8,0,0,1,.14.62v.06a3.73,3.73,0,0,1-.19.65,4.31,4.31,0,0,1-.71,1,5.93,5.93,0,0,1-1.42,1.16,9,9,0,0,1-2.51.9,17.71,17.71,0,0,1-3.77.45q-4.64,0-6.45-2.4a10.77,10.77,0,0,1-1.81-6.59,16.25,16.25,0,0,1,.54-4.44,9.17,9.17,0,0,1,1.33-3,6.25,6.25,0,0,1,1.9-1.73,7.54,7.54,0,0,1,2.06-.88,9.18,9.18,0,0,1,2.09-.22,12.91,12.91,0,0,1,3.91.56,9.57,9.57,0,0,1,2.63,1.22,6.45,6.45,0,0,1,1.5,1.58,7,7,0,0,1,.73,1.28c.08.22.15.43.23.62a.8.8,0,0,1-.14.62.9.9,0,0,1-.54.37.84.84,0,0,1-1-.65,1.17,1.17,0,0,0-.14-.43,6.61,6.61,0,0,0-.62-1,5.21,5.21,0,0,0-1.22-1.16,7.62,7.62,0,0,0-2.15-.93A11.1,11.1,0,0,0,309.77,136.85Z"/><path class="cls-2" d="M329.35,152.75a8.56,8.56,0,0,0,2.77-.39,3.29,3.29,0,0,0,1.62-1.05,4.73,4.73,0,0,0,.67-1.19,3,3,0,0,0-.45-2.94,3.29,3.29,0,0,0-1.64-1.05,12,12,0,0,0-1.64-.36,8.88,8.88,0,0,0-1.22-.09h-.17c-.26,0-.56-.06-.9-.08a11.53,11.53,0,0,1-1.73-.34,9.19,9.19,0,0,1-2.12-.8,4.89,4.89,0,0,1-1.64-1.5,3.92,3.92,0,0,1-.73-2.37,5,5,0,0,1,1.75-3.79c1.17-1.1,3-1.64,5.43-1.64q5,.1,6.85,3.34a.82.82,0,0,1,.05.79.76.76,0,0,1-1.13.39,1,1,0,0,1-.39-.34c-1-1.65-2.74-2.49-5.38-2.49-2,0-3.37.33-4.21,1.11a3.48,3.48,0,0,0-1.28,2.63,2.38,2.38,0,0,0,.57,1.58,3.25,3.25,0,0,0,1.33,1,10.78,10.78,0,0,0,1.58.51,12.56,12.56,0,0,0,1.33.26c.34,0,.55,0,.62,0h.17a10.84,10.84,0,0,1,2.18.23,9.66,9.66,0,0,1,2.21.76,4.4,4.4,0,0,1,1.78,1.59,4.56,4.56,0,0,1,.68,2.52,5,5,0,0,1-.31,1.75,5.61,5.61,0,0,1-1.05,1.7,5.16,5.16,0,0,1-2.18,1.38,9.74,9.74,0,0,1-3.42.54,12.43,12.43,0,0,1-2.77-.28,9.34,9.34,0,0,1-2-.65,5.82,5.82,0,0,1-1.3-.88,4.79,4.79,0,0,1-.74-.76,2.77,2.77,0,0,1-.28-.54.81.81,0,0,1,0-.68.72.72,0,0,1,.42-.45.77.77,0,0,1,1.14.39,1.34,1.34,0,0,0,.14.26,2.81,2.81,0,0,0,.51.51,4.85,4.85,0,0,0,1,.65,6.81,6.81,0,0,0,1.58.51A10.82,10.82,0,0,0,329.35,152.75Z"/></g></g></svg>