
<svg xmlns="http://www.w3.org/2000/svg" viewBox="0 0 336.33 154.63"><defs><style>.cls-1{fill:#fff;}</style></defs><g id="Layer_2" data-name="Layer 2"><g id="Layer_1-2" data-name="Layer 1"><g id="Layer_2-2" data-name="Layer 2"><g id="레이어_1" data-name="레이어 1"><path class="cls-1" d="M122.14,31.44c0,.86-.59,2.3-1.78,4.3A117.78,117.78,0,0,1,112.28,47q-4.84,6-10.74,12T89,70.68a121,121,0,0,1-13.4,9.87A82.89,82.89,0,0,1,62.12,87.4,35,35,0,0,1,49.44,90h-.57c-9.25,0-16.2-2.65-20.8-8s-6.9-12.7-6.9-22.17a84.47,84.47,0,0,1,.9-12A68.25,68.25,0,0,1,25.2,35a70,70,0,0,1,6.08-13.08A66.41,66.41,0,0,1,41.07,9.26,34.27,34.27,0,0,1,50.5,2.4,21.39,21.39,0,0,1,59.83,0a6.23,6.23,0,0,1,1.72.32,16.56,16.56,0,0,1,2.15.85,14.23,14.23,0,0,1,2.11,1.3,11.06,11.06,0,0,1,1.75,1.67,23.45,23.45,0,0,1,3.32,5.6A16.73,16.73,0,0,1,71.94,16a26.8,26.8,0,0,1-1.29,8.57,32.39,32.39,0,0,1-3.74,7.52,51.62,51.62,0,0,1-6,7.35c-2.36,2.47-5.1,5.13-8.19,8-1,1-2.25,2.06-3.66,3.25s-2.92,2.44-4.54,3.74-3.31,2.65-5.05,4.06l-5.1,4.13Q35,77.19,50.5,77.17q8.59,0,18.35-4.55a58.41,58.41,0,0,0,8.94-5.24c2.76-2,5.48-4,8.12-6,1.33-1,2.77-2.25,4.3-3.66S93.4,54.83,95,53.25s3.31-3.14,5-4.7,3.21-3.06,4.66-4.47c.92-.92,1.92-1.9,3-2.93s2.11-2.15,3.3-3.38l4.38-4.38q4-3.5,5.77-3.5C121.81,29.89,122.14,30.41,122.14,31.44ZM59.59,19.25A7.1,7.1,0,0,0,58.28,15a3.79,3.79,0,0,0-3.15-1.83,8.1,8.1,0,0,0-3.54,1.13A16.35,16.35,0,0,0,47,18.36a56.27,56.27,0,0,0-8.43,14.5,74.86,74.86,0,0,0-4.89,18.89c3.42-2.77,6.3-5.23,8.67-7.4s4.48-4.19,6.37-6.09q2-1.95,3.86-4.14a40.39,40.39,0,0,0,3.48-4.64,24.84,24.84,0,0,0,2.56-5A14.83,14.83,0,0,0,59.59,19.25Z"/><path class="cls-1" d="M249.5,34.61a10,10,0,0,1-.53,3.12,26.32,26.32,0,0,1-1.29,3.17,28.56,28.56,0,0,1-1.74,3.1c-.67,1-1.27,2-1.88,2.88a69.06,69.06,0,0,1-5.52,7.43c-2.11,2.52-4.38,5-6.78,7.36s-4.89,4.62-7.44,6.74a86.53,86.53,0,0,1-7.47,5.6c-1.94,1.3-3.8,2.52-5.56,3.66A42.46,42.46,0,0,1,206,80.58a31.74,31.74,0,0,1-5.61,2,26.19,26.19,0,0,1-6.42.73,17.12,17.12,0,0,1-11-3.41,15.59,15.59,0,0,1-3.69-4.43,35,35,0,0,1-2.76-6,64.58,64.58,0,0,1-2-7.07c-.57-2.48-1-4.95-1.43-7.38-.49-3-.93-5.77-1.37-8.17a42.76,42.76,0,0,0-1.5-6.1,10.51,10.51,0,0,0-2.08-3.81A4.1,4.1,0,0,0,165,35.6a13,13,0,0,0-2.91.32,9.7,9.7,0,0,0-2.9,1.3A22.2,22.2,0,0,0,155.88,40c-1.2,1.19-2.58,2.77-4.19,4.72s-3.42,4.33-5.48,7.15S141.75,58,139,61.91c-1.35,1.9-2.95,4-4.79,6.26s-3.72,4.44-5.63,6.5A71.61,71.61,0,0,1,122.86,80,14.65,14.65,0,0,1,118,83q-7.12-1.55-7.14-17.79a127.28,127.28,0,0,1,1-13.08c.31-2.65.7-5.43,1.13-8.33s1-5.79,1.63-8.68,1.39-5.73,2.23-8.45a51.85,51.85,0,0,1,3-7.61,10.41,10.41,0,0,1,1.7-2.55,6.44,6.44,0,0,1,1.82-1.38,6.09,6.09,0,0,1,2-.56,16,16,0,0,1,2.07-.13c.86,0,1.63.59,2.31,1.79a9.86,9.86,0,0,1,1,4.95,20.42,20.42,0,0,1-.33,3.66,32.4,32.4,0,0,1-.88,3.49c-.4,1.19-.81,2.47-1.24,3.86s-.86,3-1.29,4.75c-.33,1.46-.68,3.09-1.09,4.88s-.79,3.6-1.14,5.44-.66,3.64-.9,5.4a37.69,37.69,0,0,0-.37,4.75,10.52,10.52,0,0,0,.49,3c1.53-.15,4-2.43,7.47-6.81,1.8-2.23,3.76-4.66,5.89-7.32s4.46-5.58,6.95-8.78Q147,34,149.72,30.87a43.06,43.06,0,0,1,5.64-5.41,26.11,26.11,0,0,1,6.22-3.65,19,19,0,0,1,7.26-1.34,12.76,12.76,0,0,1,7,1.82,13.44,13.44,0,0,1,4.5,5A28.88,28.88,0,0,1,183,35c.63,3,1.12,6.25,1.51,9.83q.47,4.55.92,9a32.7,32.7,0,0,0,1.76,8A14,14,0,0,0,191,67.58c1.62,1.46,4,2.2,7,2.2a18.58,18.58,0,0,0,7.3-1.63,46.15,46.15,0,0,0,8.06-4.51A99.09,99.09,0,0,0,222,56.86c3-2.6,6.11-5.45,9.3-8.53a48.62,48.62,0,0,0,4.1-4.51c1.49-1.81,3-3.56,4.39-5.24a54.77,54.77,0,0,1,4-4.3c1.22-1.19,2.25-1.78,3-1.78a4.38,4.38,0,0,1,1.59.48A1.66,1.66,0,0,1,249.5,34.61Z"/><path class="cls-1" d="M315.16,59.05A7.74,7.74,0,0,1,313,64.34c-1.46,1.62-2.73,3-3.83,4.1s-2.09,2.13-3.07,3-2,1.8-3.09,2.64-2.35,1.8-3.82,2.87a109.65,109.65,0,0,1-11.77,7.52,80.67,80.67,0,0,1-10.9,5,56,56,0,0,1-10.43,2.72,68,68,0,0,1-10.37.81A22.06,22.06,0,0,1,246,90.93a21.15,21.15,0,0,1-7.26-5.64,24.77,24.77,0,0,1-4.5-8.29,32,32,0,0,1-1.54-10v-.41a51.62,51.62,0,0,1,1.38-11.42A80,80,0,0,1,237.94,43a90,90,0,0,1,13.69-23c1.14-1.36,2.51-2.8,4.09-4.34a45.46,45.46,0,0,1,5.13-4.26,29,29,0,0,1,5.69-3.21,14.67,14.67,0,0,1,5.79-1.26,6.65,6.65,0,0,1,3.74,1.17,15.15,15.15,0,0,1,3.34,3.05,28.21,28.21,0,0,1,2.84,4.18A32.53,32.53,0,0,1,284.44,20a33.68,33.68,0,0,1,1.39,4.59,18.88,18.88,0,0,1,.49,3.74,17.6,17.6,0,0,1-1.47,6.09c-1,2.5-2.15,3.74-3.5,3.74q-2.91,0-4.87-4a19.63,19.63,0,0,1-1.25-3.57c-.35-1.36-.77-2.68-1.22-4A15.58,15.58,0,0,0,272.18,23,6.82,6.82,0,0,0,269,20.55a10.72,10.72,0,0,0-4.09,2.11,28,28,0,0,0-4.07,4A50.48,50.48,0,0,0,257,32c-1.27,2-2.48,4-3.61,6.13a56.93,56.93,0,0,0-3.17,6.7c-1.05,2.55-2,5.16-2.76,7.8a71.4,71.4,0,0,0-2,8,40.79,40.79,0,0,0-.72,7.31,11,11,0,0,0,1.13,4.75,16.91,16.91,0,0,0,3,4.34A15.63,15.63,0,0,0,253,80.17a10,10,0,0,0,4.76,1.23,61.71,61.71,0,0,0,23.89-5A82,82,0,0,0,304.22,62c3.95-3.47,7.24-5.2,9.82-5.2C314.77,56.86,315.16,57.6,315.16,59.05Z"/><path class="cls-1" d="M16.24,152.7a.82.82,0,0,1,.59.25.85.85,0,0,1,.26.62.76.76,0,0,1-.26.6.85.85,0,0,1-.59.22L1,154.34a.87.87,0,0,1-.51-.17.77.77,0,0,1-.45-.74L.1,140.76a.46.46,0,0,1-.06-.23.43.43,0,0,1,.06-.22V128.08a.94.94,0,0,1-.1-.28.81.81,0,0,1,.25-.62.88.88,0,0,1,.6-.23H.91l15.22.06a.83.83,0,0,1,.84.84.86.86,0,0,1-.25.6.81.81,0,0,1-.59.26l-14.38-.06v11l10.3.06a.76.76,0,0,1,.62.25.88.88,0,0,1,.23.6.82.82,0,0,1-.25.59.79.79,0,0,1-.6.26l-10.3-.06L1.7,152.64Z"/><path class="cls-1" d="M28,135.1a.8.8,0,0,1,.62.26.89.89,0,0,1,.23.62.81.81,0,0,1-.23.59.79.79,0,0,1-.56.23H25.4l-.06,16.7a.84.84,0,0,1-.84.84.86.86,0,0,1-.6-.25.83.83,0,0,1-.26-.59l.06-16.7H21a.83.83,0,0,1-.59-.25.8.8,0,0,1,0-1.14l0,0a.83.83,0,0,1,.59-.25h2.66V127.7a.85.85,0,0,1,.26-.6.81.81,0,0,1,1.16,0l0,0a.81.81,0,0,1,.26.6v7.41Z"/><path class="cls-1" d="M33.61,145.91A8.2,8.2,0,0,0,35.14,151c.94,1.13,2.61,1.69,5,1.7a17.15,17.15,0,0,0,3.2-.37,8.3,8.3,0,0,0,2.06-.68,3.82,3.82,0,0,0,1.11-.85,2.81,2.81,0,0,0,.48-.65,1.36,1.36,0,0,1,.11-.28.79.79,0,0,1,.34-.54.8.8,0,0,1,.62-.14.79.79,0,0,1,.54.34.8.8,0,0,1,.14.62v.06a3.75,3.75,0,0,1-.2.65,4.09,4.09,0,0,1-.7,1A5.88,5.88,0,0,1,46.45,153a8.73,8.73,0,0,1-2.52.9,17,17,0,0,1-3.76.45q-4.64,0-6.45-2.4a10.7,10.7,0,0,1-1.81-6.59,16.62,16.62,0,0,1,.54-4.44,9.19,9.19,0,0,1,1.33-3,6.37,6.37,0,0,1,1.89-1.73,7.73,7.73,0,0,1,2.07-.88,9.22,9.22,0,0,1,2.09-.22,10.31,10.31,0,0,1,3.31.51,8.23,8.23,0,0,1,2.8,1.64,7.36,7.36,0,0,1,2,3.17,14.31,14.31,0,0,1,.74,4.81.83.83,0,0,1-.26.59.82.82,0,0,1-.59.25ZM47,144.44q-.41-7.59-7.19-7.59-5.78,0-6.17,7.36Z"/><path class="cls-1" d="M55.11,153.55a.87.87,0,0,1-.88.84.75.75,0,0,1-.59-.25.86.86,0,0,1-.23-.59l-.06-12.68a.65.65,0,0,1,0-.51l-.05-4.47a.82.82,0,0,1,.25-.59.88.88,0,0,1,.63-.26.74.74,0,0,1,.59.26.86.86,0,0,1,.23.59v1.3a5.26,5.26,0,0,1,4.19-2c2.64.07,4.39.83,5.26,2.26v.06a.78.78,0,0,1-.18,1.09l-.13.07a.75.75,0,0,1-1.06-.15.86.86,0,0,1-.1-.16c-.53-.91-1.79-1.4-3.79-1.48a3.5,3.5,0,0,0-1.73.43,3.83,3.83,0,0,0-1.27,1.13,9.57,9.57,0,0,0-.76,1.22,8.61,8.61,0,0,0-.43,1Z"/><path class="cls-1" d="M76.5,135.16a14.5,14.5,0,0,1,4.1.51,5.75,5.75,0,0,1,2.57,1.38,6,6,0,0,1,1.22,1.73,4.51,4.51,0,0,1,.37,1.81l-.06,13a.84.84,0,0,1-.84.84.86.86,0,0,1-.6-.25.83.83,0,0,1-.26-.59l.06-13A3.19,3.19,0,0,0,81.59,138q-1.47-1.11-5.09-1.11A7.63,7.63,0,0,0,73,138a25.86,25.86,0,0,0-3.48,2.3l.06,13.24a.83.83,0,0,1-.26.59.84.84,0,0,1-1.2,0,.87.87,0,0,1-.24-.57l-.06-13.3a.8.8,0,0,1,0-.57v-3.79a.82.82,0,0,1,.25-.59.85.85,0,0,1,.62-.26.76.76,0,0,1,.6.26.85.85,0,0,1,.22.59l.06,2.32Q73.66,135.17,76.5,135.16Z"/><path class="cls-1" d="M103,136a.83.83,0,0,1,.26-.59.85.85,0,0,1,.62-.26.74.74,0,0,1,.59.26.86.86,0,0,1,.23.59v17.6a.87.87,0,0,1-.88.85.75.75,0,0,1-.59-.25.88.88,0,0,1-.23-.6v-2.43a8.66,8.66,0,0,1-7,3.22q-4.64,0-6.45-2.4a10.7,10.7,0,0,1-1.81-6.59,16.62,16.62,0,0,1,.54-4.44,9.19,9.19,0,0,1,1.33-3,6.37,6.37,0,0,1,1.89-1.73,7.73,7.73,0,0,1,2.07-.88,9.22,9.22,0,0,1,2.09-.22,8.25,8.25,0,0,1,7.3,3.68Zm-7.3.9q-6.23,0-6.22,8.55a8.89,8.89,0,0,0,1.41,5.49c1,1.2,2.66,1.81,5.15,1.81a8.14,8.14,0,0,0,3-.63,6.61,6.61,0,0,0,2-1.21,5.93,5.93,0,0,0,1.16-1.56,5.39,5.39,0,0,0,.57-1.33l.14-.76A2.33,2.33,0,0,0,103,147v-3.8a4.13,4.13,0,0,0-.17-.82,7.56,7.56,0,0,0-.65-1.52A8.56,8.56,0,0,0,101,139a6.3,6.3,0,0,0-2.1-1.44,7.1,7.1,0,0,0-3.17-.71Z"/><path class="cls-1" d="M111,153.55a.83.83,0,0,1-.26.59.81.81,0,0,1-1.16,0l0,0a.83.83,0,0,1-.26-.59v-25.8a.85.85,0,0,1,1.69,0Z"/><path class="cls-1" d="M132.57,135.16a2.63,2.63,0,0,1-.06-.48v-.43a11,11,0,0,1,.28-2.49,8.53,8.53,0,0,1,1-2.32,5,5,0,0,1,2-1.81,7,7,0,0,1,3.14-.68,5.85,5.85,0,0,1,2.41.46,5,5,0,0,1,1.7,1.13,6,6,0,0,1,1.1,1.64,10.62,10.62,0,0,1,.65,1.7,13.16,13.16,0,0,1,.31,1.64c.08.6.12,1,.14,1.13a4.34,4.34,0,0,1,0,.51,4.58,4.58,0,0,1-.37,1.86,4.76,4.76,0,0,1-1.19,1.62,12.11,12.11,0,0,1-1.47,1.21c-.43.31-1.07.72-1.92,1.25s-1.46.92-1.84,1.19a97,97,0,0,0,7.41,7.63,8.63,8.63,0,0,0,2.1-3.16.76.76,0,0,1,.42-.49.82.82,0,0,1,.65,0,.7.7,0,0,1,.48.42.82.82,0,0,1,0,.65,10.79,10.79,0,0,1-2.43,3.74c.86.79,1.62,1.45,2.26,2a.74.74,0,0,1,.21,1,.53.53,0,0,1-.12.14.76.76,0,0,1-1,.27.65.65,0,0,1-.18-.15l-2.38-2.15a10.82,10.82,0,0,1-6.9,2.26,6.17,6.17,0,0,1-4.53-1.89,7.81,7.81,0,0,1-1.1-1.73,9.88,9.88,0,0,1-.54-1.3,3.87,3.87,0,0,0-.11-.62v-.17A8.47,8.47,0,0,1,136,142Q132.57,137.65,132.57,135.16Zm4.81,5.77c.41-.27,1-.62,1.72-1.08s1.31-.82,1.73-1.1.85-.62,1.33-1a4.06,4.06,0,0,0,1-1.22,2.66,2.66,0,0,0,.34-1.35,8.83,8.83,0,0,0-.14-1.36,18.72,18.72,0,0,0-.51-2.09,4.3,4.3,0,0,0-1.41-2.18,3.84,3.84,0,0,0-2.58-.88,5,5,0,0,0-2.4.54,3.34,3.34,0,0,0-1.44,1.44,7.93,7.93,0,0,0-.66,1.78,8.71,8.71,0,0,0-.19,1.84,5.21,5.21,0,0,0,0,.79v.12c.09,1.22,1.13,3.15,3.21,5.75ZM144.62,151a92.74,92.74,0,0,1-7.53-7.7,6.82,6.82,0,0,0-2.71,5.38,4.09,4.09,0,0,0,.25.91,9.14,9.14,0,0,0,.68,1.32,3.42,3.42,0,0,0,1.44,1.33,4.57,4.57,0,0,0,2.21.51A9.4,9.4,0,0,0,144.62,151Z"/><path class="cls-1" d="M184.39,128.59a14.15,14.15,0,0,0-5.09,1.08,8.16,8.16,0,0,0-3.68,2.8,12.46,12.46,0,0,0-2.12,4.07,14.67,14.67,0,0,0-.59,4,12.16,12.16,0,0,0,.34,2.69,20.82,20.82,0,0,0,1,3.17,11,11,0,0,0,1.93,3.08,7.35,7.35,0,0,0,2.83,2,14.81,14.81,0,0,0,5.32,1.19q3.78,0,8-3.11a.72.72,0,0,1,1,0,.85.85,0,0,1,.14.19.75.75,0,0,1,0,1.07.61.61,0,0,1-.16.12q-4.64,3.45-9,3.45a16.22,16.22,0,0,1-5.94-1.3,9.06,9.06,0,0,1-3.37-2.37,12.06,12.06,0,0,1-2.26-3.51,23.49,23.49,0,0,1-1.16-3.59,12.64,12.64,0,0,1,0-6.31,19.2,19.2,0,0,1,1.21-3.54,11.52,11.52,0,0,1,2.35-3.39,9.56,9.56,0,0,1,3.51-2.3,16,16,0,0,1,5.71-1.18,15.22,15.22,0,0,1,9,3.33.85.85,0,0,1-.84,1.48.61.61,0,0,1-.16-.12A13.49,13.49,0,0,0,184.39,128.59Z"/><path class="cls-1" d="M214.66,145.4a16.71,16.71,0,0,1-.08,1.87,11,11,0,0,1-.57,2.26,7,7,0,0,1-1.35,2.4,7.42,7.42,0,0,1-2.58,1.73,10.13,10.13,0,0,1-4.07.73q-4.65,0-6.45-2.4a10.7,10.7,0,0,1-1.81-6.59,16.21,16.21,0,0,1,.53-4.44,9.19,9.19,0,0,1,1.33-3,6.29,6.29,0,0,1,1.9-1.73,7.67,7.67,0,0,1,2.06-.88,9.31,9.31,0,0,1,2.1-.22,9.5,9.5,0,0,1,4.41,1,6.89,6.89,0,0,1,2.83,2.52,11.5,11.5,0,0,1,1.39,3.17,13.17,13.17,0,0,1,.42,3.36A.43.43,0,0,1,214.66,145.4Zm-9-8.55q-6.22,0-6.23,8.55a8.86,8.86,0,0,0,1.42,5.49c.94,1.2,2.66,1.81,5.15,1.81a9,9,0,0,0,3.67-.65,4.44,4.44,0,0,0,2.15-1.84,7.65,7.65,0,0,0,.91-2.35,13.68,13.68,0,0,0,.23-2.63V145a.54.54,0,0,1,0-.22,13,13,0,0,0-.19-1.93,8.38,8.38,0,0,0-.66-2,7.78,7.78,0,0,0-1.24-2,5.47,5.47,0,0,0-2.12-1.42,8.16,8.16,0,0,0-3.13-.58Z"/><path class="cls-1" d="M224.68,152.75a8.64,8.64,0,0,0,2.77-.39,3.29,3.29,0,0,0,1.61-1.05,4.83,4.83,0,0,0,.68-1.19,3.12,3.12,0,0,0,.2-1,2.85,2.85,0,0,0-.65-1.9,3.3,3.3,0,0,0-1.64-1.05,11.42,11.42,0,0,0-1.64-.36,8.25,8.25,0,0,0-1.22-.09h-.17c-.26,0-.56-.06-.9-.08a11.5,11.5,0,0,1-1.73-.34,9.35,9.35,0,0,1-2.12-.8,4.72,4.72,0,0,1-1.64-1.5,3.94,3.94,0,0,1-.74-2.37,5,5,0,0,1,1.76-3.79c1.16-1.1,3-1.64,5.43-1.64q5,.11,6.84,3.34a.85.85,0,0,1,.06.79.76.76,0,0,1-1,.47l-.16-.08a1,1,0,0,1-.4-.34c-.94-1.65-2.73-2.49-5.37-2.49-2,0-3.37.33-4.22,1.11a3.49,3.49,0,0,0-1.27,2.63,2.4,2.4,0,0,0,.57,1.58,3.25,3.25,0,0,0,1.32,1,11.31,11.31,0,0,0,1.59.51A12,12,0,0,0,224,144h.79a10.69,10.69,0,0,1,2.18.23,9.47,9.47,0,0,1,2.21.76,4.41,4.41,0,0,1,1.78,1.59,4.57,4.57,0,0,1,.68,2.52,5.2,5.2,0,0,1-.31,1.75,5.55,5.55,0,0,1-1.05,1.7,5.18,5.18,0,0,1-2.18,1.38,9.72,9.72,0,0,1-3.42.54,12.29,12.29,0,0,1-2.77-.28,9.35,9.35,0,0,1-2-.65,6,6,0,0,1-1.31-.88,5.25,5.25,0,0,1-.73-.76,2.31,2.31,0,0,1-.28-.54.74.74,0,0,1,0-.68.72.72,0,0,1,.42-.45.75.75,0,0,1,1.05.23.8.8,0,0,1,.08.16l.14.26a3.51,3.51,0,0,0,.51.51,5.91,5.91,0,0,0,1,.65,7.37,7.37,0,0,0,1.59.51A10.49,10.49,0,0,0,224.68,152.75Z"/><path class="cls-1" d="M251.78,135.16a5.72,5.72,0,0,1,4.33,1.67,5.29,5.29,0,0,1,1.61,3.76v13a.84.84,0,0,1-.84.84.86.86,0,0,1-.6-.25.83.83,0,0,1-.26-.59v-13a3.86,3.86,0,0,0-1-2.52,4,4,0,0,0-3.2-1.22,3.77,3.77,0,0,0-2.12.71,7,7,0,0,0-1.56,1.36c-.32.41-.62.83-.9,1.27a1.83,1.83,0,0,1,0,.4v13a.85.85,0,0,1-1.69,0v-13a3.76,3.76,0,0,0-1.08-2.52,4.08,4.08,0,0,0-3.22-1.22,3.7,3.7,0,0,0-2,.68,7.63,7.63,0,0,0-1.56,1.33,8,8,0,0,0-.87,1.28l0,13.41a.84.84,0,0,1-.84.84.86.86,0,0,1-.6-.25.83.83,0,0,1-.26-.59v-13.3a.71.71,0,0,1,0-.57v-3.79a.9.9,0,0,1,.22-.59.76.76,0,0,1,.6-.26.85.85,0,0,1,.62.26.83.83,0,0,1,.26.59v1.47a6.16,6.16,0,0,1,4.47-2.2,5.54,5.54,0,0,1,5.31,2.94Q248.9,135.16,251.78,135.16Z"/><path class="cls-1" d="M262.53,145.91a8.2,8.2,0,0,0,1.53,5.09c.94,1.13,2.61,1.69,5,1.7a17.15,17.15,0,0,0,3.2-.37,8.81,8.81,0,0,0,2.07-.68,3.65,3.65,0,0,0,1.1-.85,2.81,2.81,0,0,0,.48-.65,2.33,2.33,0,0,1,.11-.28.79.79,0,0,1,.34-.54.8.8,0,0,1,.62-.14.79.79,0,0,1,.54.34.8.8,0,0,1,.14.62v.06a3.72,3.72,0,0,1-.19.65,4.66,4.66,0,0,1-.71,1,5.87,5.87,0,0,1-1.42,1.16,9,9,0,0,1-2.51.9,17.74,17.74,0,0,1-3.77.45q-4.63,0-6.45-2.4a10.78,10.78,0,0,1-1.81-6.59,16.62,16.62,0,0,1,.54-4.44,9.19,9.19,0,0,1,1.33-3,6.29,6.29,0,0,1,1.9-1.73,7.67,7.67,0,0,1,2.06-.88,9.22,9.22,0,0,1,2.09-.22,10.31,10.31,0,0,1,3.31.51,8.08,8.08,0,0,1,2.8,1.64,7.36,7.36,0,0,1,2,3.17,14.31,14.31,0,0,1,.74,4.81.83.83,0,0,1-.26.59.82.82,0,0,1-.59.25Zm13.41-1.47q-.39-7.59-7.19-7.59-5.76,0-6.16,7.36Z"/><path class="cls-1" d="M290,135.1a.8.8,0,0,1,.62.26.89.89,0,0,1,.23.62.81.81,0,0,1-.23.59.79.79,0,0,1-.56.23H287.4l-.06,16.7a.84.84,0,0,1-.85.84.82.82,0,0,1-.59-.25.83.83,0,0,1-.26-.59l.06-16.7H283a.82.82,0,0,1-.59-.25.8.8,0,0,1,0-1.14l0,0a.82.82,0,0,1,.59-.25h2.66V127.7a.83.83,0,0,1,.83-.85.82.82,0,0,1,.61.25.81.81,0,0,1,.26.6v7.41Z"/><path class="cls-1" d="M298.26,132.24a1.68,1.68,0,0,1-2.38-2.37,1.66,1.66,0,0,1,2.36,0,1.64,1.64,0,0,1,.5,1.21A1.59,1.59,0,0,1,298.26,132.24ZM298,153.6a.85.85,0,0,1-.85.85h0a.75.75,0,0,1-.59-.25.88.88,0,0,1-.23-.6V135.89a.83.83,0,0,1,.26-.59.81.81,0,0,1,1.19,0,.83.83,0,0,1,.25.59Z"/><path class="cls-1" d="M309.77,136.85q-6.22,0-6.22,8.55a8.86,8.86,0,0,0,1.42,5.49c.94,1.2,2.65,1.81,5.14,1.81a17.15,17.15,0,0,0,3.2-.37,8.81,8.81,0,0,0,2.07-.68,3.65,3.65,0,0,0,1.1-.85,2.81,2.81,0,0,0,.48-.65l.11-.28a.79.79,0,0,1,.34-.54.83.83,0,0,1,.63-.14.83.83,0,0,1,.67,1v.06a3.72,3.72,0,0,1-.19.65,4.42,4.42,0,0,1-.71,1,5.87,5.87,0,0,1-1.42,1.16,9,9,0,0,1-2.51.9,17.74,17.74,0,0,1-3.77.45q-4.64,0-6.45-2.4a10.78,10.78,0,0,1-1.81-6.59,16.62,16.62,0,0,1,.54-4.44,9.19,9.19,0,0,1,1.33-3,6.29,6.29,0,0,1,1.9-1.73,7.67,7.67,0,0,1,2.06-.88,9.22,9.22,0,0,1,2.09-.22,12.93,12.93,0,0,1,3.91.56,9.54,9.54,0,0,1,2.63,1.22,6.44,6.44,0,0,1,1.5,1.58,7,7,0,0,1,.73,1.28c.08.22.15.43.23.62a.8.8,0,0,1-.14.62.89.89,0,0,1-.54.37.84.84,0,0,1-1-.64h0a1.09,1.09,0,0,0-.14-.43,6.42,6.42,0,0,0-.62-1,5.17,5.17,0,0,0-1.22-1.16,7.62,7.62,0,0,0-2.15-.93A11,11,0,0,0,309.77,136.85Z"/><path class="cls-1" d="M329.35,152.75a8.64,8.64,0,0,0,2.77-.39,3.32,3.32,0,0,0,1.62-1.05,4.5,4.5,0,0,0,.67-1.19,3,3,0,0,0-.45-2.94,3.3,3.3,0,0,0-1.64-1.05,11.42,11.42,0,0,0-1.64-.36,8.25,8.25,0,0,0-1.22-.09h-.17c-.26,0-.56-.06-.9-.08a11.5,11.5,0,0,1-1.73-.34,9.35,9.35,0,0,1-2.12-.8,5,5,0,0,1-1.64-1.5,3.94,3.94,0,0,1-.73-2.37,5,5,0,0,1,1.75-3.79c1.17-1.1,3-1.64,5.43-1.64,3.33.07,5.62,1.18,6.85,3.34a.82.82,0,0,1,.05.79.76.76,0,0,1-1,.47l-.16-.08a1,1,0,0,1-.39-.34c-1-1.65-2.74-2.49-5.38-2.49-2,0-3.37.33-4.21,1.11a3.5,3.5,0,0,0-1.28,2.63,2.4,2.4,0,0,0,.57,1.58,3.28,3.28,0,0,0,1.33,1,10.78,10.78,0,0,0,1.58.51,12,12,0,0,0,1.33.26h.79a10.69,10.69,0,0,1,2.18.23,9.47,9.47,0,0,1,2.21.76,4.41,4.41,0,0,1,1.78,1.59,4.57,4.57,0,0,1,.68,2.52,5,5,0,0,1-.31,1.75,5.55,5.55,0,0,1-1.05,1.7,5.18,5.18,0,0,1-2.18,1.38,9.72,9.72,0,0,1-3.42.54,12.29,12.29,0,0,1-2.77-.28,9.35,9.35,0,0,1-2-.65,5.72,5.72,0,0,1-1.3-.88,5.32,5.32,0,0,1-.74-.76,2.77,2.77,0,0,1-.28-.54.81.81,0,0,1,0-.68.72.72,0,0,1,.42-.45.77.77,0,0,1,1.06.23.6.6,0,0,1,.08.16,1.3,1.3,0,0,0,.14.26,3.08,3.08,0,0,0,.51.51,4.64,4.64,0,0,0,1,.65,6.78,6.78,0,0,0,1.58.51A10.53,10.53,0,0,0,329.35,152.75Z"/></g></g></g></g></svg>