<?xml version="1.0" encoding="UTF-8"?>
<svg id="Layer_1" xmlns="http://www.w3.org/2000/svg" version="1.1" viewBox="0 0 500 500" fill="#ff8847">
  <!-- Generator: Adobe Illustrator 29.8.3, SVG Export Plug-In . SVG Version: 2.1.1 Build 3)  -->
  <path d="M403.75,103.81H101.75c-11.3,0-20.5-9.2-20.5-20.5v-27.68c0-11.3,9.2-20.5,20.5-20.5h302c11.3,0,20.5,9.2,20.5,20.5v27.68c0,11.3-9.2,20.5-20.5,20.5ZM101.75,44.13c-6.34,0-11.5,5.16-11.5,11.5v27.68c0,6.34,5.16,11.5,11.5,11.5h302c6.34,0,11.5-5.16,11.5-11.5v-27.68c0-6.34-5.16-11.5-11.5-11.5H101.75Z"/>
  <path d="M379.75,444.93H125.75c-11.3,0-20.5-9.2-20.5-20.5V115.31c0-11.3,9.2-20.5,20.5-20.5h254c11.3,0,20.5,9.2,20.5,20.5v309.12c0,11.3-9.2,20.5-20.5,20.5ZM125.75,103.81c-6.34,0-11.5,5.16-11.5,11.5v309.12c0,6.34,5.16,11.5,11.5,11.5h254c6.34,0,11.5-5.16,11.5-11.5V115.31c0-6.34-5.16-11.5-11.5-11.5H125.75Z"/>
  <path d="M193.51,217.65c-21.01,0-38.1-17.09-38.1-38.1s17.09-38.1,38.1-38.1,38.1,17.09,38.1,38.1-17.09,38.1-38.1,38.1ZM193.51,150.45c-16.05,0-29.1,13.05-29.1,29.1s13.05,29.1,29.1,29.1,29.1-13.05,29.1-29.1-13.05-29.1-29.1-29.1Z"/>
  <path d="M311.99,217.65c-21.01,0-38.1-17.09-38.1-38.1s17.09-38.1,38.1-38.1,38.1,17.09,38.1,38.1-17.09,38.1-38.1,38.1ZM311.99,150.45c-16.05,0-29.1,13.05-29.1,29.1s13.05,29.1,29.1,29.1,29.1-13.05,29.1-29.1-13.05-29.1-29.1-29.1Z"/>
  <path d="M193.51,307.97c-21.01,0-38.1-17.09-38.1-38.1s17.09-38.1,38.1-38.1,38.1,17.09,38.1,38.1-17.09,38.1-38.1,38.1ZM193.51,240.77c-16.05,0-29.1,13.05-29.1,29.1s13.05,29.1,29.1,29.1,29.1-13.05,29.1-29.1-13.05-29.1-29.1-29.1Z"/>
  <path d="M311.99,307.97c-21.01,0-38.1-17.09-38.1-38.1s17.09-38.1,38.1-38.1,38.1,17.09,38.1,38.1-17.09,38.1-38.1,38.1ZM311.99,240.77c-16.05,0-29.1,13.05-29.1,29.1s13.05,29.1,29.1,29.1,29.1-13.05,29.1-29.1-13.05-29.1-29.1-29.1Z"/>
  <path d="M193.51,398.29c-21.01,0-38.1-17.09-38.1-38.1s17.09-38.1,38.1-38.1,38.1,17.09,38.1,38.1-17.09,38.1-38.1,38.1ZM193.51,331.09c-16.05,0-29.1,13.05-29.1,29.1s13.05,29.1,29.1,29.1,29.1-13.05,29.1-29.1-13.05-29.1-29.1-29.1Z"/>
  <path d="M311.99,398.29c-21.01,0-38.1-17.09-38.1-38.1s17.09-38.1,38.1-38.1,38.1,17.09,38.1,38.1-17.09,38.1-38.1,38.1ZM311.99,331.09c-16.05,0-29.1,13.05-29.1,29.1s13.05,29.1,29.1,29.1,29.1-13.05,29.1-29.1-13.05-29.1-29.1-29.1Z"/>
</svg>