<?xml version="1.0" encoding="UTF-8"?>
<svg id="Layer_1" xmlns="http://www.w3.org/2000/svg" version="1.1" viewBox="0 0 500 500" fill="#828282">
  <!-- Generator: Adobe Illustrator 29.8.3, SVG Export Plug-In . SVG Version: 2.1.1 Build 3)  -->
  <path d="M424.17,447.37H86.57c-11.3,0-20.5-9.2-20.5-20.5v-201.6c0-13.42,10.92-24.34,24.34-24.34h330.08c13.33,0,24.18,10.92,24.18,24.34v201.6c0,11.3-9.2,20.5-20.5,20.5ZM90.41,209.93c-8.46,0-15.34,6.88-15.34,15.34v201.6c0,6.34,5.16,11.5,11.5,11.5h337.6c6.34,0,11.5-5.16,11.5-11.5v-201.6c0-8.46-6.81-15.34-15.18-15.34H90.41Z"/>
  <path d="M420.41,209.93c-2.49,0-4.5-2.01-4.5-4.5v-46.88c0-6.34-5.16-11.5-11.5-11.5H106.33c-6.34,0-11.5,5.16-11.5,11.5v46.88c0,2.49-2.01,4.5-4.5,4.5s-4.5-2.01-4.5-4.5v-46.88c0-11.3,9.2-20.5,20.5-20.5h298.08c11.3,0,20.5,9.2,20.5,20.5v46.88c0,2.49-2.01,4.5-4.5,4.5Z"/>
  <path d="M440.17,410.17H70.57c-2.49,0-4.5-2.01-4.5-4.5s2.01-4.5,4.5-4.5h369.6c2.49,0,4.5,2.01,4.5,4.5s-2.01,4.5-4.5,4.5Z"/>
  <path d="M390.09,177.45H90.33c-2.49,0-4.5-2.01-4.5-4.5s2.01-4.5,4.5-4.5h299.76c2.49,0,4.5,2.01,4.5,4.5s-2.01,4.5-4.5,4.5Z"/>
  <path d="M400.65,147.05h-.11c-2.48-.06-4.45-2.12-4.39-4.6.53-22.22-15.34-65.47-59.78-89.64-19.06,29.96-79.84,36.17-133.74,41.68-17.65,1.8-34.32,3.51-47.48,5.93-17.77,3.27-29.99,9.88-36.32,19.63-6.81,10.49-4.39,20.98-4.28,21.42.58,2.41-.89,4.84-3.29,5.44s-4.83-.85-5.44-3.25c-.15-.59-3.52-14.5,5.35-28.33,7.71-12.01,21.96-20,42.36-23.76,13.52-2.49,30.36-4.21,48.2-6.03,51.23-5.23,115-11.75,128.79-40.68.52-1.09,1.46-1.93,2.6-2.32,1.14-.39,2.4-.31,3.48.23,51.07,25.57,69.16,74.84,68.56,99.89-.06,2.45-2.06,4.39-4.5,4.39h-.01Z"/>
  <path d="M103.37,317.53c-2.49,0-4.5-2.01-4.5-4.5v-63.2c0-2.49,2.01-4.5,4.5-4.5s4.5,2.01,4.5,4.5v63.2c0,2.49-2.01,4.5-4.5,4.5Z"/>
  <path d="M103.37,360.73c-2.49,0-4.5-2.01-4.5-4.5v-19.2c0-2.49,2.01-4.5,4.5-4.5s4.5,2.01,4.5,4.5v19.2c0,2.49-2.01,4.5-4.5,4.5Z"/>
</svg>