<?xml version="1.0" encoding="UTF-8"?>
<svg id="Layer_1" xmlns="http://www.w3.org/2000/svg" version="1.1" viewBox="0 0 500 500" fill="#ff8847">
  <!-- Generator: Adobe Illustrator 29.8.3, SVG Export Plug-In . SVG Version: 2.1.1 Build 3)  -->
  <path d="M248.31,454.22c-47.47,0-95.7-24.74-132.32-67.89-36.11-42.54-56.82-97.82-56.82-151.65s20.29-101.28,57.13-136.01c35.24-33.23,82.12-51.53,132.01-51.53s96.77,18.3,132.01,51.53c36.84,34.74,57.13,83.04,57.13,136.01s-20.71,109.11-56.82,151.65c-36.62,43.14-84.85,67.89-132.32,67.89h0ZM248.31,56.14c-102.7,0-180.14,76.76-180.14,178.54,0,51.74,19.93,104.89,54.68,145.83,34.91,41.12,80.64,64.71,125.46,64.71s90.55-23.59,125.46-64.71c34.75-40.94,54.68-94.09,54.68-145.83,0-101.78-77.44-178.54-180.14-178.54h0Z"/>
  <path d="M156.71,115.18c-1.43,0-2.84-.68-3.71-1.95-1.41-2.05-.89-4.85,1.16-6.26,22.25-15.27,48.39-25.41,75.59-29.3,2.46-.36,4.74,1.36,5.09,3.82s-1.36,4.74-3.82,5.09c-25.83,3.7-50.65,13.32-71.77,27.82-.78.53-1.66.79-2.54.79h0Z"/>
  <g>
    <path d="M167.27,244.14c-22.29,0-40.42-13.86-40.42-30.9s18.13-30.9,40.42-30.9,40.42,13.86,40.42,30.9-18.13,30.9-40.42,30.9ZM167.27,191.34c-17.33,0-31.42,9.82-31.42,21.9s14.09,21.9,31.42,21.9,31.42-9.82,31.42-21.9-14.09-21.9-31.42-21.9Z"/>
    <path d="M329.35,244.14c-22.29,0-40.42-13.86-40.42-30.9s18.13-30.9,40.42-30.9,40.42,13.86,40.42,30.9-18.13,30.9-40.42,30.9ZM329.35,191.34c-17.33,0-31.42,9.82-31.42,21.9s14.09,21.9,31.42,21.9,31.42-9.82,31.42-21.9-14.1-21.9-31.42-21.9h0Z"/>
  </g>
  <path d="M248.31,396.7c-34.1,0-60.82-15.96-60.82-36.34s26.72-36.34,60.82-36.34,60.82,15.96,60.82,36.34-26.71,36.34-60.82,36.34ZM248.31,333.02c-28.09,0-51.82,12.52-51.82,27.34s23.73,27.34,51.82,27.34,51.82-12.52,51.82-27.34-23.73-27.34-51.82-27.34Z"/>
  <path d="M147.59,147.5c-1.15,0-2.3-.44-3.18-1.32l-34.64-34.64c-1.76-1.76-1.76-4.61,0-6.36,1.76-1.76,4.61-1.76,6.36,0l34.64,34.64c1.76,1.76,1.76,4.61,0,6.36-.88.88-2.03,1.32-3.18,1.32Z"/>
  <path d="M347.99,147.5c-1.15,0-2.3-.44-3.18-1.32-1.76-1.76-1.76-4.61,0-6.36l34.64-34.64c1.76-1.76,4.61-1.76,6.36,0,1.76,1.76,1.76,4.61,0,6.36l-34.64,34.64c-.88.88-2.03,1.32-3.18,1.32h0Z"/>
  <path d="M112.95,379.58c-1.15,0-2.3-.44-3.18-1.32-1.76-1.76-1.76-4.61,0-6.36l34.64-34.64c1.76-1.76,4.61-1.76,6.36,0,1.76,1.76,1.76,4.61,0,6.36l-34.64,34.64c-.88.88-2.03,1.32-3.18,1.32Z"/>
  <path d="M382.63,379.58c-1.15,0-2.3-.44-3.18-1.32l-34.64-34.64c-1.76-1.76-1.76-4.61,0-6.36,1.76-1.76,4.61-1.76,6.36,0l34.64,34.64c1.76,1.76,1.76,4.61,0,6.36-.88.88-2.03,1.32-3.18,1.32Z"/>
  <path d="M112.95,271.1h-46.88c-2.49,0-4.5-2.01-4.5-4.5s2.01-4.5,4.5-4.5h46.88c2.49,0,4.5,2.01,4.5,4.5s-2.01,4.5-4.5,4.5Z"/>
  <path d="M429.51,271.1h-46.88c-2.49,0-4.5-2.01-4.5-4.5s2.01-4.5,4.5-4.5h46.88c2.49,0,4.5,2.01,4.5,4.5s-2.01,4.5-4.5,4.5Z"/>
  <path d="M248.31,308.66c-7.7,0-15.4-.12-27.69-.36-6.59-.13-10.01-3.39-11.72-6.1-7.37-11.68,3-35.98,5.15-40.74,1.03-2.26,3.69-3.27,5.95-2.24,2.26,1.02,3.27,3.69,2.24,5.95-4.52,10-9.29,26.6-5.74,32.22.54.86,1.52,1.85,4.29,1.9,24.68.48,30.34.48,55.03,0,2.77-.05,3.75-1.05,4.29-1.9,3.56-5.64-1.21-22.23-5.74-32.22-1.03-2.26-.02-4.93,2.24-5.96,2.27-1.03,4.93-.02,5.96,2.24,2.15,4.75,12.52,29.06,5.15,40.74-1.71,2.71-5.13,5.97-11.72,6.1-12.29.24-19.99.36-27.69.36h0Z"/>
</svg>