<?xml version="1.0" encoding="UTF-8"?>
<svg id="Layer_1" xmlns="http://www.w3.org/2000/svg" version="1.1" viewBox="0 0 500 500" fill="#ff8847">
  <!-- Generator: Adobe Illustrator 29.8.3, SVG Export Plug-In . SVG Version: 2.1.1 Build 3)  -->
  <g>
    <path d="M97.26,372.54H24.54c-11.3,0-20.5-9.2-20.5-20.5V77.72c0-11.3,9.2-20.5,20.5-20.5h72.72c11.3,0,20.5,9.2,20.5,20.5v274.32c0,11.3-9.2,20.5-20.5,20.5ZM24.54,66.22c-6.34,0-11.5,5.16-11.5,11.5v274.32c0,6.34,5.16,11.5,11.5,11.5h72.72c6.34,0,11.5-5.16,11.5-11.5V77.72c0-6.34-5.16-11.5-11.5-11.5H24.54Z"/>
    <path d="M39.1,254.62c-2.49,0-4.5-2.01-4.5-4.5V100.2c0-2.49,2.01-4.5,4.5-4.5s4.5,2.01,4.5,4.5v149.92c0,2.49-2.01,4.5-4.5,4.5Z"/>
    <path d="M39.1,313.26c-2.49,0-4.5-2.01-4.5-4.5v-35.52c0-2.49,2.01-4.5,4.5-4.5s4.5,2.01,4.5,4.5v35.52c0,2.49-2.01,4.5-4.5,4.5Z"/>
  </g>
  <g>
    <path d="M477.15,350.68H164.19c-10.25,0-18.58-8.34-18.58-18.58v-132.88l.08-23.2v-29.52c0-2.49,2.01-4.5,4.5-4.5h341.04c2.49,0,4.5,2.01,4.5,4.5v185.6c0,10.25-8.34,18.58-18.58,18.58h0ZM154.69,151v25.04l-.08,23.2v132.86c0,5.28,4.3,9.58,9.58,9.58h312.96c5.28,0,9.58-4.3,9.58-9.58v-181.1H154.69h0ZM150.19,176.02h0Z"/>
    <path d="M320.67,324.68h-143.2c-2.49,0-4.5-2.01-4.5-4.5s2.01-4.5,4.5-4.5h143.2c2.49,0,4.5,2.01,4.5,4.5s-2.01,4.5-4.5,4.5Z"/>
    <path d="M373.71,324.68h-30.32c-2.49,0-4.5-2.01-4.5-4.5s2.01-4.5,4.5-4.5h30.32c2.49,0,4.5,2.01,4.5,4.5s-2.01,4.5-4.5,4.5Z"/>
  </g>
  <g>
    <path d="M305.01,263.72c-9.65-4.33-20.93-11.57-26.92-23.1-5.92-11.39-5.58-24.67,1.01-39.47.73-1.64,2.36-2.69,4.15-2.67,16.21.16,28.43,5.37,36.32,15.5,15.38,19.75,8.11,50.73,7.79,52.04-.57,2.34-2.87,3.82-5.23,3.36-.63-.12-8.18-1.65-17.12-5.66ZM286.17,207.59c-4.3,11.01-4.34,20.71-.11,28.86,7.21,13.9,25.04,20.54,33.37,22.97,1.27-8.59,2.67-27.58-6.97-39.93-5.65-7.23-14.48-11.23-26.29-11.9h0Z"/>
    <path d="M321.94,233.91c-.95-.43-1.75-1.18-2.23-2.19-.41-.88-10.03-21.68-1.97-37.96,4.17-8.43,12.12-13.96,23.62-16.43,1.75-.38,3.56.32,4.61,1.78,6.85,9.59,9.02,19.05,6.43,28.12-4.98,17.44-25.99,26.36-26.89,26.73-1.19.49-2.48.44-3.57-.05h0ZM340.32,186.88c-7.08,2.07-11.96,5.72-14.51,10.88-4.02,8.13-1.86,19.13.36,25.81,5.53-3.1,14.96-9.59,17.58-18.84,1.58-5.55.42-11.55-3.43-17.86h0Z"/>
  </g>
</svg>